<mxfile host="app.diagrams.net" modified="2024-04-12T17:44:25.089Z" agent="Mozilla/5.0 (Windows NT 10.0; Win64; x64) AppleWebKit/537.36 (KHTML, like Gecko) Chrome/123.0.0.0 Safari/537.36" etag="xtry-8DuYPCVkF8nI9K9" version="24.2.3" type="device">
  <diagram id="bc47vRQSer-DN1HRI0ml" name="Page-1">
    <mxGraphModel dx="882" dy="578" grid="1" gridSize="10" guides="1" tooltips="1" connect="1" arrows="1" fold="1" page="1" pageScale="1" pageWidth="850" pageHeight="1100" math="0" shadow="0">
      <root>
        <mxCell id="0" />
        <mxCell id="1" parent="0" />
        <mxCell id="qVao4xbg_2WPCuzyOfFB-9" style="edgeStyle=orthogonalEdgeStyle;rounded=0;orthogonalLoop=1;jettySize=auto;html=1;exitX=1;exitY=0.5;exitDx=0;exitDy=0;entryX=0;entryY=0.5;entryDx=0;entryDy=0;" parent="1" source="qVao4xbg_2WPCuzyOfFB-1" target="qVao4xbg_2WPCuzyOfFB-2" edge="1">
          <mxGeometry relative="1" as="geometry" />
        </mxCell>
        <mxCell id="qVao4xbg_2WPCuzyOfFB-1" value="Producers" style="rounded=1;whiteSpace=wrap;html=1;" parent="1" vertex="1">
          <mxGeometry x="80" y="280" width="120" height="60" as="geometry" />
        </mxCell>
        <mxCell id="qVao4xbg_2WPCuzyOfFB-10" style="edgeStyle=orthogonalEdgeStyle;rounded=0;orthogonalLoop=1;jettySize=auto;html=1;exitX=1;exitY=0.5;exitDx=0;exitDy=0;entryX=0;entryY=0.5;entryDx=0;entryDy=0;" parent="1" source="qVao4xbg_2WPCuzyOfFB-2" target="qVao4xbg_2WPCuzyOfFB-5" edge="1">
          <mxGeometry relative="1" as="geometry" />
        </mxCell>
        <mxCell id="lUVvND8OZJ8VqQVkjP3g-7" style="edgeStyle=orthogonalEdgeStyle;rounded=0;orthogonalLoop=1;jettySize=auto;html=1;exitX=0.5;exitY=0;exitDx=0;exitDy=0;entryX=0.5;entryY=1;entryDx=0;entryDy=0;" edge="1" parent="1" source="qVao4xbg_2WPCuzyOfFB-2" target="lUVvND8OZJ8VqQVkjP3g-1">
          <mxGeometry relative="1" as="geometry" />
        </mxCell>
        <mxCell id="qVao4xbg_2WPCuzyOfFB-2" value="" style="swimlane;startSize=0;" parent="1" vertex="1">
          <mxGeometry x="280" y="240" width="200" height="120" as="geometry" />
        </mxCell>
        <mxCell id="qVao4xbg_2WPCuzyOfFB-3" value="Data storage" style="rounded=1;whiteSpace=wrap;html=1;" parent="qVao4xbg_2WPCuzyOfFB-2" vertex="1">
          <mxGeometry x="40" y="40" width="120" height="60" as="geometry" />
        </mxCell>
        <mxCell id="qVao4xbg_2WPCuzyOfFB-8" value="Brokers" style="text;html=1;align=center;verticalAlign=middle;whiteSpace=wrap;rounded=0;" parent="qVao4xbg_2WPCuzyOfFB-2" vertex="1">
          <mxGeometry x="120" width="80" height="30" as="geometry" />
        </mxCell>
        <mxCell id="qVao4xbg_2WPCuzyOfFB-5" value="Consumers (Consumer groups)" style="rounded=1;whiteSpace=wrap;html=1;" parent="1" vertex="1">
          <mxGeometry x="560" y="280" width="120" height="60" as="geometry" />
        </mxCell>
        <mxCell id="lUVvND8OZJ8VqQVkjP3g-6" style="edgeStyle=orthogonalEdgeStyle;rounded=0;orthogonalLoop=1;jettySize=auto;html=1;exitX=0.5;exitY=1;exitDx=0;exitDy=0;entryX=0.5;entryY=0;entryDx=0;entryDy=0;" edge="1" parent="1" source="lUVvND8OZJ8VqQVkjP3g-1" target="qVao4xbg_2WPCuzyOfFB-2">
          <mxGeometry relative="1" as="geometry" />
        </mxCell>
        <mxCell id="lUVvND8OZJ8VqQVkjP3g-1" value="" style="swimlane;startSize=0;" vertex="1" parent="1">
          <mxGeometry x="80" y="40" width="600" height="120" as="geometry" />
        </mxCell>
        <mxCell id="lUVvND8OZJ8VqQVkjP3g-2" value="State storage" style="rounded=1;whiteSpace=wrap;html=1;" vertex="1" parent="lUVvND8OZJ8VqQVkjP3g-1">
          <mxGeometry x="240" y="40" width="120" height="60" as="geometry" />
        </mxCell>
        <mxCell id="lUVvND8OZJ8VqQVkjP3g-3" value="Metadata storage" style="rounded=1;whiteSpace=wrap;html=1;" vertex="1" parent="lUVvND8OZJ8VqQVkjP3g-1">
          <mxGeometry x="80" y="40" width="120" height="60" as="geometry" />
        </mxCell>
        <mxCell id="lUVvND8OZJ8VqQVkjP3g-4" value="Coordination service" style="rounded=1;whiteSpace=wrap;html=1;" vertex="1" parent="lUVvND8OZJ8VqQVkjP3g-1">
          <mxGeometry x="400" y="40" width="120" height="60" as="geometry" />
        </mxCell>
        <mxCell id="lUVvND8OZJ8VqQVkjP3g-5" value="Zoo keeper" style="text;html=1;align=center;verticalAlign=middle;whiteSpace=wrap;rounded=0;" vertex="1" parent="lUVvND8OZJ8VqQVkjP3g-1">
          <mxGeometry x="520" width="80" height="30" as="geometry" />
        </mxCell>
      </root>
    </mxGraphModel>
  </diagram>
</mxfile>
